<svg xmlns="http://www.w3.org/2000/svg" viewBox="0 0 128 128">
  <path d="M64 128C28.7 128 0 99.3 0 64S28.7 0 64 0s64 28.7 64 64-28.7 64-64 64M64 7.9C33.1 7.9 7.9 33.1 7.9 64c0 30.9 25.1 56.1 56.1 56.1S120.1 95 120.1 64c0-30.9-25.2-56.1-56.1-56.1" fill="#B2B4B6"/>
  <g fill="#BCCB32">
    <path d="M48.9 80.8c-.5-.3-1-.6-1.7-.8-.7-.2-1.4-.4-2.2-.6-.7-.2-1.1-.3-1.4-.4-.3-.1-.6-.2-.8-.4-.3-.1-.5-.3-.6-.5-.2-.2-.2-.5-.2-.8 0-.5.2-.9.7-1.2.5-.3 1.1-.5 1.8-.5.8 0 1.4.2 1.8.5.4.3.7.7.9 1.3.2.4.4.7.6.8.2.2.4.3.8.3s.7-.1.9-.4c.2-.3.4-.6.4-.9 0-.4-.1-.8-.3-1.2-.2-.4-.5-.8-.9-1.1-.4-.4-1-.7-1.6-.9-.5-.2-1.1-.3-1.7-.3v-1.2c0-.6-.5-1.1-1.1-1.1-.6 0-1.1.5-1.1 1.1v1.3c-.5.1-.9.2-1.3.4-.8.3-1.4.8-1.9 1.4-.4.6-.6 1.3-.6 2.1s.2 1.5.6 2.1c.4.6 1 1 1.7 1.3.7.3 1.6.6 2.6.9.8.2 1.4.3 1.9.5s.8.4 1.1.7c.3.3.4.7.4 1.2 0 .6-.3 1.1-.8 1.5-.5.4-1.2.6-2.1.6-.6 0-1.1-.1-1.5-.3-.4-.2-.7-.5-.9-.8-.2-.3-.4-.7-.6-1.2-.1-.4-.3-.7-.5-.9-.2-.2-.5-.3-.8-.3-.4 0-.7.1-.9.4-.2.3-.4.6-.4.9 0 .6.2 1.2.6 1.9.4.6.9 1.2 1.6 1.6.5.3 1.2.5 1.8.7v1.8c0 .6.5 1.1 1.1 1.1.6 0 1.1-.5 1.1-1.1v-1.7c.9-.1 1.8-.2 2.5-.5.9-.4 1.5-.9 2-1.6.4-.7.7-1.5.7-2.4 0-.7-.1-1.3-.4-1.9-.5-.7-.9-1.1-1.3-1.4zM80.6 75.7h9.2v9.2h-9.2z"/>
  </g>
  <g fill="#DDD">
    <path d="M41.7 60.6h9.1v-9.2h-9.2v9.2zM63.8 72.4v-8.8h-8.2c3.5 2 6.4 5.1 8.2 8.8zM54.6 51.4h9.2v9.2h-9.2zM80.6 63.5h9.2v9.2h-9.2zM67.6 75.7h9.2v9.2h-9.2zM67.6 51.4h9.2v9.2h-9.2zM80.3 51.4h9.2v9.2h-9.2zM67.6 63.5h9.2v9.2h-9.2z"/>
  </g>
  <g fill="#B2B4B6">
    <path d="M52.1 43.1c1.4 0 2.5-1.1 2.5-2.5v-7c0-1.4-1.1-2.5-2.5-2.5s-2.5 1.1-2.5 2.5v7c0 1.4 1.2 2.5 2.5 2.5zM79.2 43.1c1.4 0 2.5-1.1 2.5-2.5v-7c0-1.4-1.1-2.5-2.5-2.5s-2.5 1.1-2.5 2.5v7c0 1.4 1.1 2.5 2.5 2.5z"/>
    <path d="M93.9 37.6H83v3c0 2.1-1.7 3.8-3.8 3.8-2.1 0-3.8-1.7-3.8-3.8v-3H56v3c0 2.1-1.7 3.8-3.8 3.8-2.1 0-3.8-1.7-3.8-3.8v-3h-11c-1.5 0-2.8 1.2-2.8 2.8V63c1.4-.7 2.8-1.3 4.4-1.7V48h53.3v39.7h-27c-.3 1.3-.8 2.5-1.4 3.7h29.9c1.5 0 2.8-1.2 2.8-2.8V40.3c0-1.5-1.2-2.7-2.7-2.7z"/>
    <path d="M44.6 64.5c-9.6 0-17.5 7.8-17.5 17.5 0 9.6 7.8 17.5 17.5 17.5 9.6 0 17.5-7.8 17.5-17.5s-7.8-17.5-17.5-17.5zm0 32.8c-8.5 0-15.3-6.9-15.3-15.3 0-8.5 6.9-15.3 15.3-15.3S59.9 73.5 59.9 82c0 8.4-6.8 15.3-15.3 15.3z"/>
  </g>
</svg>
